ply
format ascii 1.0
comment Created by Blender 2.82 (sub 7) - www.blender.org, source file: ''
element vertex 191
property float x
property float y
property float z
property float nx
property float ny
property float nz
property float s
property float t
property uchar red
property uchar green
property uchar blue
property uchar alpha
element face 219
property list uchar uint vertex_indices
end_header
-0.209154 -0.011233 0.005686 0.335887 -0.673391 0.658528 0.521888 0.082277 0 0 0 255
-0.209154 0.030441 0.005686 0.000000 0.707083 0.707083 0.438869 0.082277 0 0 0 255
-0.212880 0.030441 0.005686 -0.043153 0.718802 0.693838 0.438869 0.074853 1 1 1 255
-0.212880 -0.012102 0.005686 -0.063234 -0.762322 0.644093 0.523620 0.074853 0 0 0 255
-0.209154 0.030441 -0.005686 0.000000 0.707083 -0.707083 0.438869 0.082277 0 0 0 255
-0.201426 0.030441 0.005686 0.000000 0.707083 0.707083 0.438869 0.097673 0 0 0 255
-0.201426 0.030441 -0.005686 0.000000 0.707083 -0.707083 0.438869 0.097673 0 0 0 255
-0.201426 -0.004773 0.005686 0.398663 -0.561327 0.725211 0.509020 0.097673 0 0 0 255
-0.201426 -0.004773 -0.005686 0.398663 -0.561327 -0.725211 0.509020 0.097673 0 0 0 255
-0.198320 -0.002916 -0.005686 0.353343 -0.609027 -0.710074 0.505320 0.103859 0 0 0 255
-0.198320 -0.002916 0.005686 0.353343 -0.609027 0.710074 0.505320 0.103859 0 0 0 255
-0.209154 -0.011233 -0.005686 0.335887 -0.673391 -0.658528 0.521888 0.082277 5 5 5 255
-0.212880 0.030441 -0.005686 -0.043153 0.718802 -0.693838 0.438869 0.074853 0 0 0 255
-0.215862 0.030081 -0.005686 -0.135319 0.709098 -0.691977 0.439585 0.068914 0 0 0 255
-0.215862 0.030081 0.005686 -0.135319 0.709098 0.691977 0.439585 0.068914 0 0 0 255
-0.212880 -0.012102 -0.005686 -0.063234 -0.762322 -0.644093 0.523620 0.074853 0 0 0 255
-0.215862 -0.010860 0.005686 -0.292886 -0.650441 0.700766 0.521146 0.068914 0 0 0 255
-0.219961 0.029003 0.005686 -0.225806 0.684133 0.693503 0.441733 0.060747 28 28 28 255
-0.219961 -0.008873 0.005686 -0.374371 -0.622333 0.687399 0.517186 0.060747 0 0 0 255
-0.215862 -0.010860 -0.005686 -0.292886 -0.650441 -0.700766 0.521146 0.068914 0 0 0 255
-0.219961 0.029003 -0.005686 -0.225806 0.684133 -0.693503 0.441733 0.060747 0 0 0 255
-0.225054 0.026966 -0.005686 -0.341502 0.644673 -0.683889 0.445791 0.050602 0 0 0 255
-0.225054 0.026966 0.005686 -0.341502 0.644673 0.683889 0.445791 0.050602 0 0 0 255
-0.219961 -0.008873 -0.005686 -0.374371 -0.622333 -0.687399 0.517186 0.060747 0 0 0 255
-0.225054 -0.005146 -0.005686 -0.458876 -0.554796 -0.693991 0.509762 0.050602 0 0 0 255
-0.225054 -0.005146 0.005686 -0.458876 -0.554796 0.693991 0.509762 0.050602 0 0 0 255
-0.226917 -0.003409 0.005686 -0.499863 -0.508377 0.701163 0.506302 0.046890 0 0 0 255
-0.226917 -0.003409 -0.005686 -0.499863 -0.508377 -0.701163 0.506302 0.046890 0 0 0 255
-0.226917 0.025708 0.005686 -0.401471 0.584277 0.705252 0.448297 0.046890 0 0 0 255
-0.229402 0.023971 0.005686 -0.479110 0.550066 0.683950 0.451758 0.041940 0 0 0 255
-0.229402 -0.000833 0.005686 -0.523515 -0.482681 0.702078 0.501170 0.041940 0 0 0 255
-0.226917 0.025708 -0.005686 -0.401471 0.584277 -0.705252 0.448297 0.046890 0 0 0 255
-0.229402 0.023971 -0.005686 -0.479110 0.550066 -0.683950 0.451758 0.041940 0 0 0 255
-0.231513 0.021694 -0.005686 -0.542192 0.466567 -0.698782 0.456292 0.037734 0 0 0 255
-0.231513 0.021694 0.005686 -0.542192 0.466567 0.698782 0.456292 0.037734 1 1 1 255
-0.229402 -0.000833 -0.005686 -0.523515 -0.482681 -0.702078 0.501170 0.041940 0 0 0 255
-0.231513 0.001563 0.005686 -0.553514 -0.452834 0.698935 0.496396 0.037734 0 0 0 255
-0.233377 0.019358 0.005686 -0.662435 0.343089 0.665914 0.460947 0.034022 1 1 1 255
-0.233377 0.004019 0.005686 -0.640156 -0.361248 0.677969 0.491504 0.034022 0 0 0 255
-0.231513 0.001563 -0.005686 -0.553514 -0.452834 -0.698935 0.496396 0.037734 0 0 0 255
-0.235116 0.013368 0.005686 -0.728874 0.103641 0.676717 0.472881 0.030557 0 0 0 255
-0.235116 0.008392 0.005686 -0.731651 -0.140141 0.667104 0.482792 0.030557 1 1 1 255
-0.233377 0.004019 -0.005686 -0.640156 -0.361248 -0.677969 0.491504 0.034022 0 0 0 255
-0.233377 0.019358 -0.005686 -0.662435 0.343089 -0.665914 0.460947 0.034022 0 0 0 255
-0.235116 0.008392 -0.005686 -0.731651 -0.140141 -0.667104 0.482792 0.030557 0 0 0 255
-0.235116 0.013368 -0.005686 -0.728874 0.103641 -0.676717 0.472881 0.030557 0 0 0 255
-0.198320 0.030441 0.005686 0.000000 0.707083 0.707083 0.438869 0.103859 0 0 0 255
-0.195339 -0.001239 0.005686 0.323740 -0.620441 0.714255 0.501979 0.109798 0 0 0 255
-0.195339 0.030441 0.005686 0.000000 0.707083 0.707083 0.438869 0.109798 0 0 0 255
-0.198320 0.030441 -0.005686 0.000000 0.707083 -0.707083 0.438869 0.103859 0 0 0 255
-0.195339 0.030441 -0.005686 0.000000 0.707083 -0.707083 0.438869 0.109798 0 0 0 255
-0.192730 0.030441 0.005686 0.000000 0.707083 0.707083 0.438869 0.114995 0 0 0 255
-0.192730 0.030441 -0.005686 0.000000 0.707083 -0.707083 0.438869 0.114995 0 0 0 255
-0.195339 -0.001239 -0.005686 0.323740 -0.620441 -0.714255 0.501979 0.109798 0 0 0 255
-0.192730 0.000019 0.005686 0.150914 -0.633839 0.758568 0.499473 0.114995 0 0 0 255
-0.192730 0.000019 -0.005686 0.150914 -0.633839 -0.758568 0.499473 0.114995 0 0 0 255
-0.186147 0.000139 -0.005686 0.015564 -0.707785 -0.706229 0.499234 0.128110 0 0 0 255
-0.186147 0.000139 0.005686 0.015564 -0.707785 0.706229 0.499234 0.128110 0 0 0 255
-0.186147 0.030441 0.005686 0.000000 0.707083 0.707083 0.438869 0.128110 0 0 0 255
-0.179190 0.000318 0.005686 0.003021 -0.702170 0.711966 0.498876 0.141968 0 0 0 255
-0.179190 0.030441 0.005686 0.000000 0.707083 0.707083 0.438869 0.141968 1 1 1 255
-0.186147 0.030441 -0.005686 0.000000 0.707083 -0.707083 0.438869 0.128110 0 0 0 255
-0.179190 0.000319 -0.005686 0.003021 -0.702170 -0.711966 0.498876 0.141968 0 0 0 255
-0.165278 0.000079 -0.005686 -0.007569 -0.708518 -0.705618 0.499354 0.169684 0 0 0 255
-0.165278 0.000079 0.005686 -0.007569 -0.708518 0.705618 0.499354 0.169684 0 0 0 255
-0.179190 0.030441 -0.005686 0.000000 0.707083 -0.707083 0.438869 0.141968 1 1 1 255
-0.165278 0.030441 -0.005686 0.000000 0.707083 -0.707083 0.438869 0.169684 13 13 13 255
-0.150869 0.030441 -0.005686 0.000000 0.707083 -0.707083 0.438869 0.198389 0 0 0 255
-0.150869 0.000019 -0.005686 0.004028 -0.709281 -0.704886 0.499473 0.198389 12 12 12 255
-0.165278 0.030441 0.005686 0.000000 0.707083 0.707083 0.438869 0.169684 3 3 3 255
-0.150869 0.030441 0.005686 0.000000 0.707083 0.707083 0.438869 0.198389 8 8 8 255
-0.150869 0.000019 0.005686 0.004028 -0.709281 0.704886 0.499473 0.198389 0 0 0 255
-0.139316 0.000199 0.005686 0.043825 -0.715720 0.696982 0.499115 0.221403 0 0 0 255
-0.139316 0.030441 0.005686 0.000000 0.707083 0.707083 0.438869 0.221403 3 3 3 255
-0.139316 0.000199 -0.005686 0.043825 -0.715720 -0.696982 0.499115 0.221403 0 0 0 255
-0.125901 0.001636 -0.005686 0.102939 -0.707938 -0.698721 0.496251 0.248129 0 0 0 255
-0.125901 0.001636 0.005686 0.102939 -0.707938 0.698721 0.496251 0.248129 0 0 0 255
-0.139316 0.030441 -0.005686 0.000000 0.707083 -0.707083 0.438869 0.221403 8 8 8 255
-0.125901 0.030441 0.005686 0.000000 0.707083 0.707083 0.438869 0.248129 0 0 0 255
-0.112236 0.004152 0.005686 0.115848 -0.693716 0.710837 0.491239 0.275350 0 0 0 255
-0.112236 0.030441 0.005686 0.000000 0.707083 0.707083 0.438869 0.275350 13 13 13 255
-0.125901 0.030441 -0.005686 0.000000 0.707083 -0.707083 0.438869 0.248129 0 0 0 255
-0.101057 0.005830 0.005686 0.109592 -0.700003 0.705649 0.487897 0.297621 0 0 0 255
-0.101057 0.030441 0.005686 0.000000 0.707083 0.707083 0.438869 0.297621 5 5 5 255
-0.112236 0.030441 -0.005686 0.000000 0.707083 -0.707083 0.438869 0.275350 36 36 36 255
-0.112236 0.004152 -0.005686 0.115879 -0.693716 -0.710837 0.491239 0.275350 8 8 8 255
-0.101057 0.005830 -0.005686 0.109592 -0.700003 -0.705649 0.487897 0.297621 0 0 0 255
-0.092610 0.007208 -0.005686 0.117222 -0.698355 -0.706046 0.485152 0.314448 5 5 5 255
-0.092610 0.007208 0.005686 0.117222 -0.698355 0.706046 0.485152 0.314448 0 0 0 255
-0.101057 0.030441 -0.005686 0.000000 0.707083 -0.707083 0.438869 0.297621 0 0 0 255
-0.092610 0.030441 0.005686 0.000000 0.707083 0.707083 0.438869 0.314448 3 3 3 255
-0.082548 0.008945 0.005686 0.082278 -0.690054 0.719047 0.481691 0.334493 0 0 0 255
-0.082548 0.030441 0.005686 0.000000 0.707083 0.707083 0.438869 0.334493 0 0 0 255
-0.092610 0.030441 -0.005686 0.000000 0.707083 -0.707083 0.438869 0.314448 6 6 6 255
-0.082548 0.030441 -0.005686 0.000000 0.707083 -0.707083 0.438869 0.334493 35 35 35 255
-0.075344 0.030441 0.005686 0.577349 0.577349 0.577349 0.438869 0.348846 100 100 100 255
-0.075344 0.030441 -0.005686 0.577349 0.577349 -0.577349 0.438869 0.348846 255 255 255 255
-0.082548 0.008945 -0.005686 0.082278 -0.690054 -0.719047 0.481691 0.334493 0 0 0 255
-0.075344 0.009424 0.005686 0.594348 -0.556108 0.580920 0.480737 0.348846 249 249 249 255
-0.075344 0.009424 -0.005686 0.594348 -0.556108 -0.580920 0.480737 0.348846 254 254 254 255
-0.077574 0.030213 -0.000883 -0.577349 0.577349 -0.577349 0.438579 0.350600 255 255 255 255
-0.070742 0.009766 -0.000883 -0.141240 -0.635090 -0.759392 0.479070 0.357814 255 255 255 255
-0.077574 0.009766 -0.000883 -0.577349 -0.577349 -0.577349 0.479070 0.350600 57 57 57 255
-0.077574 0.030213 0.000871 -0.577349 0.577349 0.577349 0.438579 0.350600 255 255 255 255
-0.077574 0.009766 0.000871 -0.577349 -0.577349 0.577349 0.479070 0.350600 79 79 79 255
-0.070742 0.009766 0.000871 -0.141240 -0.635090 0.759392 0.479070 0.357814 255 255 255 255
-0.066230 0.007655 0.000871 -0.342082 -0.596179 0.726279 0.483251 0.366749 255 255 255 255
0.009130 0.030213 -0.000006 0.000000 1.000000 0.000000 0.438579 0.515983 255 255 255 255
-0.046501 0.030213 -0.000883 0.000000 0.707083 -0.707083 0.438579 0.405819 255 255 255 255
-0.052636 -0.014208 0.000871 -0.681356 -0.179876 0.709464 0.526545 0.393670 255 255 255 255
-0.054996 -0.005637 0.000871 -0.646352 -0.235603 0.725730 0.509572 0.388996 255 255 255 255
-0.054996 -0.005637 -0.000883 -0.646352 -0.235603 -0.725730 0.509572 0.388996 255 255 255 255
-0.044065 -0.032592 0.000871 -0.375317 -0.669362 0.641102 0.562951 0.410643 255 255 255 255
-0.047294 -0.028990 0.000871 -0.561144 -0.449690 0.694845 0.555817 0.404247 255 255 255 255
-0.047294 -0.028990 -0.000883 -0.561144 -0.449690 -0.694845 0.555817 0.404247 255 255 255 255
-0.029283 -0.033462 0.000871 0.027528 -0.715018 0.698538 0.564673 0.439916 255 255 255 255
-0.046501 0.030213 0.000871 0.000000 0.707083 0.707083 0.438579 0.405819 255 255 255 255
-0.039344 -0.033462 0.000871 -0.066073 -0.723441 0.687185 0.564673 0.419991 255 255 255 255
0.017360 0.030213 -0.000883 0.000000 0.707083 -0.707083 0.438579 0.532281 255 255 255 255
0.006325 -0.031530 -0.000883 0.030671 -0.708487 -0.705008 0.560847 0.510429 255 255 255 255
-0.012591 -0.032174 -0.000883 0.038942 -0.701102 -0.711966 0.562123 0.472969 255 255 255 255
-0.012591 -0.032174 0.000871 0.038942 -0.701102 0.711966 0.562123 0.472969 255 255 255 255
-0.029283 -0.033462 -0.000883 0.027528 -0.715018 -0.698538 0.564673 0.439916 255 255 255 255
0.026726 -0.030457 0.000871 0.032105 -0.704764 0.708670 0.558722 0.550827 255 255 255 255
0.017360 0.030213 0.000871 0.000000 0.707083 0.707083 0.438579 0.532281 255 255 255 255
0.006325 -0.031530 0.000871 0.030671 -0.708487 0.705008 0.560847 0.510429 255 255 255 255
0.026726 -0.030457 -0.000883 0.032105 -0.704764 -0.708670 0.558722 0.550827 255 255 255 255
0.048981 -0.029598 -0.000883 0.036103 -0.708914 -0.704337 0.557022 0.594898 255 255 255 255
0.048981 -0.029598 0.000871 0.036103 -0.708914 0.704337 0.557022 0.594898 255 255 255 255
0.093862 -0.026378 0.000871 0.072848 -0.708121 0.702292 0.550646 0.683774 255 255 255 255
0.117971 0.030213 0.000871 0.003937 0.708335 0.705832 0.438579 0.731517 255 255 255 255
0.072719 -0.028095 0.000871 0.051088 -0.707236 0.705100 0.554046 0.641906 255 255 255 255
0.117971 0.030213 -0.000883 0.003937 0.708335 -0.705832 0.438579 0.731517 255 255 255 255
0.093862 -0.026378 -0.000883 0.072848 -0.708121 -0.702292 0.550646 0.683774 255 255 255 255
0.072719 -0.028095 -0.000883 0.051088 -0.707236 -0.705100 0.554046 0.641906 255 255 255 255
0.117971 -0.023373 -0.000883 0.098636 -0.703604 -0.703665 0.544695 0.731517 255 255 255 255
0.117971 -0.023373 0.000871 0.098636 -0.703604 0.703665 0.544695 0.731517 255 255 255 255
0.232164 0.011828 0.000871 0.350047 -0.614734 0.706748 0.474984 0.957655 255 255 255 255
0.227444 0.009150 0.000871 0.354442 -0.608966 0.709555 0.480291 0.948304 255 255 255 255
0.227444 0.009150 -0.000883 0.354442 -0.608966 -0.709555 0.480291 0.948304 255 255 255 255
0.236674 0.018692 -0.000883 0.168920 0.700736 -0.693106 0.461393 0.966581 255 255 255 255
0.232167 0.019481 -0.000883 0.123997 0.695364 -0.707846 0.459832 0.957655 255 255 255 255
0.232167 0.019481 0.000871 0.123997 0.695364 0.707846 0.459832 0.957655 255 255 255 255
0.240592 0.017445 -0.000883 0.650410 0.471023 -0.595874 0.463865 0.974339 255 255 255 255
0.238685 0.018071 -0.000883 0.215339 0.675527 -0.705161 0.462625 0.970563 255 255 255 255
0.238685 0.018071 0.000871 0.215339 0.675527 0.705161 0.462625 0.970563 255 255 255 255
0.240592 0.017271 0.000871 0.703085 -0.349376 0.619312 0.464208 0.974339 255 255 255 255
0.240592 0.017271 -0.000883 0.703085 -0.349406 -0.619312 0.464208 0.974339 255 255 255 255
0.238685 0.015826 0.000871 0.419782 -0.573534 0.703391 0.467069 0.970563 255 255 255 255
0.238685 0.015827 -0.000883 0.419782 -0.573534 -0.703391 0.467069 0.970563 255 255 255 255
0.236674 0.018692 0.000871 0.168920 0.700736 0.693106 0.461393 0.966581 255 255 255 255
-0.039344 -0.033462 -0.000883 -0.066073 -0.723441 -0.687185 0.564673 0.419991 255 255 255 255
-0.044065 -0.032592 -0.000883 -0.375317 -0.669362 -0.641102 0.562951 0.410643 255 255 255 255
-0.049779 -0.025512 -0.000883 -0.675436 -0.312967 -0.667684 0.548930 0.399328 255 255 255 255
-0.052636 -0.014208 -0.000883 -0.681356 -0.179876 -0.709464 0.526545 0.393670 255 255 255 255
-0.058075 0.001071 -0.000883 -0.532365 -0.385327 -0.753716 0.496289 0.382898 255 255 255 255
-0.062091 0.004798 0.000871 -0.431867 -0.538316 0.723655 0.488909 0.374947 255 255 255 255
-0.062090 0.004798 -0.000883 -0.431867 -0.538316 -0.723655 0.488909 0.374947 255 255 255 255
-0.066230 0.007655 -0.000883 -0.342082 -0.596179 -0.726279 0.483251 0.366749 255 255 255 255
-0.058075 0.001071 0.000871 -0.532365 -0.385327 0.753716 0.496289 0.382898 255 255 255 255
-0.049779 -0.025512 0.000871 -0.675436 -0.312967 0.667684 0.548930 0.399328 255 255 255 255
0.137259 -0.020368 0.000871 0.125889 -0.701010 0.701926 0.538744 0.769712 255 255 255 255
0.137259 0.029999 0.000871 0.022980 0.711417 0.702353 0.439004 0.769712 255 255 255 255
0.137259 -0.020368 -0.000883 0.125889 -0.701010 -0.701926 0.538744 0.769712 255 255 255 255
0.157288 -0.016290 -0.000883 0.156285 -0.694296 -0.702506 0.530668 0.809375 255 255 255 255
0.157288 -0.016290 0.000871 0.156285 -0.694296 0.702506 0.530668 0.809375 255 255 255 255
0.137259 0.029999 -0.000883 0.023011 0.711417 -0.702353 0.439004 0.769712 255 255 255 255
0.157288 0.028925 -0.000883 0.049135 0.708884 -0.703574 0.441129 0.809375 255 255 255 255
0.157288 0.028925 0.000871 0.049135 0.708884 0.703574 0.441129 0.809375 255 255 255 255
0.182510 0.026779 0.000871 0.066805 0.706046 0.704978 0.445380 0.859322 255 255 255 255
0.182510 0.026779 -0.000883 0.066805 0.706046 -0.704978 0.445380 0.859322 255 255 255 255
0.182510 -0.010065 0.000871 0.207587 -0.687613 0.695730 0.518341 0.859322 255 255 255 255
0.201056 -0.003411 0.000871 0.264138 -0.663991 0.699484 0.505164 0.896048 255 255 255 255
0.201056 0.024847 0.000871 0.092013 0.706809 0.701346 0.449205 0.896048 255 255 255 255
0.182510 -0.010065 -0.000883 0.207587 -0.687613 -0.695730 0.518341 0.859322 255 255 255 255
0.201056 0.024847 -0.000883 0.092013 0.706809 -0.701346 0.449205 0.896048 255 255 255 255
0.214780 0.022701 0.000871 0.118320 0.699911 0.704337 0.453456 0.923225 255 255 255 255
0.214780 0.022701 -0.000883 0.118320 0.699911 -0.704337 0.453456 0.923225 255 255 255 255
0.201056 -0.003411 -0.000883 0.264138 -0.663991 -0.699484 0.505164 0.896048 255 255 255 255
0.221863 0.005819 -0.000883 0.333598 -0.637165 -0.694784 0.486886 0.937252 255 255 255 255
0.214780 0.002600 -0.000883 0.288766 -0.647145 -0.705527 0.493262 0.923225 255 255 255 255
0.221863 0.021413 -0.000883 0.130222 0.696158 -0.705954 0.456006 0.937252 255 255 255 255
0.214780 0.002599 0.000871 0.288766 -0.647145 0.705527 0.493262 0.923225 255 255 255 255
0.221863 0.021413 0.000871 0.130222 0.696158 0.705954 0.456006 0.937252 255 255 255 255
0.221863 0.005819 0.000871 0.333598 -0.637135 0.694784 0.486886 0.937252 255 255 255 255
0.227444 0.020339 0.000871 0.129795 0.693899 0.708243 0.458132 0.948304 255 255 255 255
0.227444 0.020340 -0.000883 0.129795 0.693899 -0.708243 0.458132 0.948304 255 255 255 255
0.236674 0.014405 0.000871 0.385571 -0.605213 0.696432 0.469883 0.966581 255 255 255 255
0.232167 0.011829 -0.000883 0.350047 -0.614734 -0.706748 0.474984 0.957655 255 255 255 255
0.236674 0.014405 -0.000883 0.385571 -0.605213 -0.696432 0.469883 0.966581 255 255 255 255
0.240592 0.017445 0.000871 0.650380 0.471053 0.595874 0.463865 0.974339 255 255 255 255
4 0 1 2 3
4 4 1 5 6
4 7 8 9 10
4 8 7 0 11
4 4 6 8 11
4 5 1 0 7
4 2 12 13 14
4 4 11 15 12
4 1 4 12 2
4 11 0 3 15
4 16 14 17 18
4 15 3 16 19
4 3 2 14 16
4 12 15 19 13
4 17 20 21 22
4 13 19 23 20
4 14 13 20 17
4 19 16 18 23
4 24 25 26 27
4 23 18 25 24
4 18 17 22 25
4 20 23 24 21
4 26 28 29 30
4 25 22 28 26
4 21 24 27 31
4 22 21 31 28
4 29 32 33 34
4 31 27 35 32
4 28 31 32 29
4 27 26 30 35
4 36 34 37 38
4 35 30 36 39
4 30 29 34 36
4 32 35 39 33
4 38 37 40 41
4 33 39 42 43
4 34 33 43 37
4 39 36 38 42
4 44 41 40 45
4 43 42 44 45
4 37 43 45 40
4 42 38 41 44
4 46 10 47 48
4 8 6 49 9
4 5 7 10 46
4 6 5 46 49
4 50 48 51 52
4 49 46 48 50
4 10 9 53 47
4 9 49 50 53
4 54 55 56 57
4 47 53 55 54
4 53 50 52 55
4 48 47 54 51
4 58 57 59 60
4 55 52 61 56
4 51 54 57 58
4 52 51 58 61
4 59 62 63 64
4 61 58 60 65
4 57 56 62 59
4 56 61 65 62
4 63 66 67 68
4 62 65 66 63
4 60 59 64 69
4 65 60 69 66
4 70 71 72 73
4 69 64 71 70
4 66 69 70 67
4 64 63 68 71
4 72 74 75 76
4 67 70 73 77
4 71 68 74 72
4 68 67 77 74
4 78 76 79 80
4 74 77 81 75
4 73 72 76 78
4 77 73 78 81
4 80 79 82 83
4 81 78 80 84
4 76 75 85 79
4 75 81 84 85
4 82 86 87 88
4 84 80 83 89
4 79 85 86 82
4 85 84 89 86
4 90 88 91 92
4 86 89 93 87
4 83 82 88 90
4 89 83 90 93
4 94 92 95 96
4 93 90 92 94
4 88 87 97 91
4 87 93 94 97
4 96 95 98 99
4 91 97 99 98
4 97 94 96 99
4 92 91 98 95
3 100 101 102
3 103 104 105
3 106 105 101
3 107 108 100
3 109 110 111
3 112 113 114
3 115 116 117
3 118 119 120
3 121 115 122
3 123 124 125
3 125 124 121
4 103 100 102 104
3 118 126 119
3 118 127 126
3 128 124 123
3 129 130 131
3 132 118 107
3 132 133 134
3 132 135 133
3 136 130 129
3 137 138 139
3 140 141 142
3 143 144 145
3 143 146 147
3 147 148 149
3 145 140 150
3 133 131 134
3 124 107 116
3 151 112 152
3 153 109 154
3 155 156 157
3 116 100 103
4 104 102 101 105
4 116 103 106 156
3 105 106 103
4 158 100 108 157
3 100 158 101
4 159 155 111 110
3 159 110 116
3 108 155 157
3 156 159 116
3 155 159 156
3 110 109 116
4 160 153 114 113
3 108 111 155
3 108 154 111
3 160 113 116
3 108 153 154
3 109 160 116
3 153 160 109
4 117 151 122 115
3 108 114 153
3 108 152 114
3 113 112 116
3 108 151 152
3 112 117 116
3 151 117 112
3 107 118 108
4 120 122 108 118
3 108 122 151
4 116 115 121 124
4 124 128 131 130
4 134 127 118 132
4 130 136 161 162
3 133 129 131
4 129 133 135 136
4 161 163 164 165
4 136 135 163 161
4 132 130 162 166
4 163 135 132 166
4 167 168 169 170
4 166 162 168 167
4 164 163 166 167
4 162 161 165 168
4 169 171 172 173
4 174 164 167 170
4 168 165 171 169
4 165 164 174 171
4 175 173 176 177
4 171 174 178 172
4 170 169 173 175
4 178 174 170 175
4 179 180 177 181
4 180 178 175 177
4 173 172 182 176
4 172 178 180 182
4 183 184 138 185
4 176 182 184 183
4 182 180 179 184
4 177 176 183 181
4 186 185 142 141
4 184 179 139 138
4 181 183 185 186
4 139 179 181 186
4 142 137 187 150
4 188 139 186 141
4 185 138 137 142
4 189 188 141 140
4 149 189 140 144
3 145 144 140
4 150 187 148 145
4 147 149 144 143
3 143 190 146
4 145 148 146 190
4 137 188 189 187
3 147 146 148
3 190 143 145
3 150 140 142
4 187 189 149 148
4 107 124 130 132
3 188 137 139
4 128 127 134 131
4 123 126 127 128
4 125 119 126 123
4 121 120 119 125
4 106 158 157 156
3 120 121 122
3 152 112 114
3 154 109 111
3 116 107 100
3 158 106 101
